<mxfile host="app.diagrams.net" modified="2023-06-18T17:25:45.441Z" agent="Mozilla/5.0 (Windows NT 10.0; Win64; x64; rv:102.0) Gecko/20100101 Firefox/102.0" etag="X0Vlu2vUPaBvEt78n1G-" version="21.4.0" type="device">
  <diagram id="R2lEEEUBdFMjLlhIrx00" name="Page-1">
    <mxGraphModel dx="1314" dy="727" grid="1" gridSize="10" guides="1" tooltips="1" connect="1" arrows="1" fold="1" page="1" pageScale="1" pageWidth="1200" pageHeight="1920" math="0" shadow="0" extFonts="Permanent Marker^https://fonts.googleapis.com/css?family=Permanent+Marker">
      <root>
        <mxCell id="0" />
        <mxCell id="1" parent="0" />
        <mxCell id="xRkAMs9unRZzOuT88SSD-60" value="" style="shape=image;verticalLabelPosition=bottom;labelBackgroundColor=default;verticalAlign=top;aspect=fixed;imageAspect=0;image=data:image/png,iVBORw0KGgoAAAANSUhEUgAAAWQAAAJ5CAYAAACZu0r4AAAgAElEQVR4Xu2dB5gURdqAv805gYqoYELRw4QKZswRcyaYwJz17sScE3r3mwPmgJgjpjPnnDAnMCBgYjObw19fz/Zsz+yEhu6Fntm3nvM5dqaquuqtmrdrvq7uyeic8WqnkCAAAQhAYIkTyEDIS3wMaAAEIAABiwBCZiJAAAIQCAgBhByQgaAZEIAABBAycwACEIBAQAgg5IAMBM2AAAQggJCZAxCAAAQCQgAhB2QgaAYEIAABhMwcgAAEIBAQAgg5IANBMyAAAQggZOYABCAAgYAQQMgBGQiaAQEIQAAhMwcgAAEIBIQAQg7IQNAMCEAAAgiZOQABCEAgIAQQckAGgmZAAAIQQMjMAQhAAAIBIYCQAzIQNAMCEIAAQmYOQAACEAgIAYQckIGgGRCAAAQQMnMAAhCAQEAIIOSADATNgAAEIICQmQMQgAAEAkIAIQdkIGgGBCAAAYTMHIAABCAQEAIIOSADkcrN+LOyOqL5y/QrT+Xu0HYILDECgRNyTf2CuDByc7KlIC8vKawLp9wj9Q2Nkp+XKxccc6hkZGQkLdPXM7z3+dfy+CtvWRj23Hoz2WTdYa6RnHbVlIi8V5xylOuyZIQABLoJBE7I0R/ueIOlsj3t0AOluLAgIstbn3whT73+Tvi1bUYMl502H8mYJyHgRapeyjIwEIBAGgjZ7sK+24+SkWutGe7RT3PmyU0PPRX++9A9dpJ/rLIiY46QmQMQCDyBwK+Ql19mqTBEjVW2trX1gHrJCRMlJzs7/Pr3v/wmDz7/ivnqvbmsvfoqgR+EIDSwo6ND7njiOTHxHZmw586SuRBhHlbIQRhB2pAOBAIv5FjxyLun/0+++vHnMP+9t91CNl7nH+kwHinZB4ScksNGowNIICWFXNfQIBdNuTeMUy9A7bXN5tbfLa2t8vjLb4bf23XUplJUmN8DfVt7u9z3zIvy1cxfwu+NHrWxjFp/nR4XAXXF/ek334fzHbDTNmKtKJ98Xr7/ebb1+jL9y+WEMXtLXk5OOJ+u0u2UlZUl+26/ZUQ7WlrbTFvfCL+27FL9ZMsN14vI09jULLc8Ol3m/Dk//Pr40dtbK//oS5UvvPuhVNXURbRTv1Fcc9+jYu+EWG3w8jJxr10kMzMz4jjOtuob2sfoNL+6Rq6a+ohhHPqWMmaXbWX40CHiRsjNLa3WClxDSnba2cT2tb8LsxoP4GeIJkHANwIpKeSGpiY5/6a7uz/Ym42UrUcOt/5uam6Rc2+8M/ze6RPGSL+y0ghgKoZvf/o1LsSTx+8jyy3dHSrRHQiPOSSvX+mtr/cx0qkH7ScqVk1nXXd7RIglerX/zaxf5E4jdTtNOmyM9C/vbut/7n7IiLQqbjvPO/oQKSroPtnc/PBTMus3h/AMl+fe/iBm+YuOO0zycnPD7yWT6tVGxHP/6j4pJJqB0f2cfOcDojKPlw7ceRtZf43VfJvUVASBVCWQkkK++ykTspj5c5j52UceJKVFha6EnEzGdqUXHnuYtW1OU7SQkw22LaTvf5kttz32bDj75ScfGbEa1FW+rvY1ach28snd28X+e89D8sf8+DK2K73spCMkq2u1Gy3kRO0sKy6Ss44Y70rIz731vrz64WfJuh1+3ynkS26dKom2MtqFDt5tB1lryMquj0FGCKQjgcALORn0jddZU/bedlQ4W6IVcrsJM5xxza3hvCVG4ucYmWtqammR8268Szo7O62/9eaGfx1yQEwh637o883+5mwThtB0wc13y4LGpnC9Tpk7V56brbeW7GH2+NrJ+d7qK64gh+892nrrBxMiufWxZ8L5Vll+oBy9/+7W339VVcuVdz0Yfm+d1VaR8btub/0dLWRdPesqWpP2/cxrbwv3T19zijPRCjn6vTMmjpWK0hKr3sl33C/za2rD7XHWq2GS/9zd3dalK8rk32aroqZ6w+sis1/c5h3dnogK+QMCfYRASgv5yH13lSGDlo8YqkRCvvS2qVJd133jSfRX61m/zTVSmx6uz34/eoWsK0tdYdpJV7K6orXTJBMm6d8VJjnDSLDdxKs15Zr48sXHT7D+XbugQS6+pTsOfsbEcUZyxdZ75910l2jsWJPe1DLZrKydSW/geHfGVz3aGS3k6P599t2PMu3Zl8PlnCv2eEL+ee7vcuODT4bLjDHhheFR4YV4ZZ2vx+rHr/P+kOsfeCJc9wE7bi0b/GP1PvLRo5sQ6EkgpYWs3Vl/zdXlwJ22DvcskZCdgijMz7NWuc6kElQZ2klXyLpSjhZydPy1o6NTTr/mlnC5E8bsJYOWXcb6+5e5f8gND3ZLx5bkS+99LC+8+1FM6Trbue7qq8q40dtFtDP6BKCSV9knE/K8vyrNRbmHw3Wdf8whUpgfikHHk+pDL7wmH331XbhM9BbDRGWddQ5cqr+cctC+PWagM4+eXPUkS4JAXyUQeCHH2vY2xaxiZ5rVrJ2cqza3QnYz4BP32lmGrjTYk5CjhfXPgw+QAWZHRmS4YpAJV+xiNUl3iZx9/R1umhfOc+7RB0txQUGvCPmOJ541F0BDO0k0xRqPWDKPDg/tsMmGst3GGyQUsoaALj3x8IXqO5khkE4EUlLIiVZlfgr5kN13lGGrruRZyBq71W12mnTFrTsxTnfEss856mAp6boFvMGs0s93rNLdTDa7fG+skG999Bn54dffFl7Ipr8arrGTxs41hh6dku3ucNN/8kAgXQikrJAn32kuJlV3X0yyV25uhawPKXKGOmIN6HLmLkGNFXsJWWi9c//8W642e4E1ZWVlysnj9g3HnHU/8OVmp4SddN+wbpez09rmot2GSeKqqw1eQbKzs3plhXzP9Bfkyx9/WmghR4dxRq61Ro992NEn1vKSYjnz8HHp8tmiHxBYaAIpK2TnxTLt9cIKeWG+HnsVcrR4Vja7JuwbJIauNMi6UcOZnKtGvTioFwndpN5YIb/+0WfyzJvvhw+vu1J0d0q89jrHwtkP3ZWhuzOcKVraeuLZ31zYI0GgrxJISSFHS0JXuxcce6g1holWyM8asbxmBGOnncyNE9t03VBiv1Zndj/oTot/Hxra8qbJDyGfY+LCzSY+HJ203dGPFI0OE+iNKGusPDii6Ny//rb2Bo/bpfuCX28IudlsBzznhu4bbfROvyP26b7wFn3XpFPItz76tAl3zIkr8+nmqXxvmqfz2UmZL13Bs5T7qozot9lV1Tnj1dDG24Akt4/fdDb36P12l1VWGJhUyJohuv6lzJ1xmw9fx+wpzpRPzbawmbNDFwtXNVf8j+q64u+HkKN3RugxNHxx2Ynd4Qq7T9EnFX195eWXtXaUaCxat7zZt0JvNWI92WXzjayivSFkrffiW++V2vrQDSyaVlhmadlw2FBrT/Tbn33ZY+bY31ba2trlzOu648iacQtza7reyfix2bkxy3EbdXS4wrndTh8wddK4fQIyQ2kGBHqPQMoLWR8qpA8Xiiez6Fun9QYOvZEjWXLGPP0Qst4AMenq7q1xevw1zWNBDzOPB42Vom8OidfefUzfN+p6sFJvCVkf9q8P/XebnDsx9Bb1eLeZ2/Vp+EhvptE4uJ2cQtYthLqVkASBdCeQskIebD6k++2wldlCVhExRm6eZaFbsm566En5dd6fPcZX5aD7fnV3hZ38ELLWFX1H30Vm/7DzYUTRjaldsMDclPGUVEbdCaf59LbuY8w3g4FL9w8X6y0h6wH+MM/UuGbqo+HdIvZBxxtWT7z6tvULLXaK3hqnz+O47v7HRR8wFJ00nq7fRKIfduQU8krLLSvHHrBHun8W6R8EgheyWNxjMs88MKe6rt5anekDhZwP61ncbYl3vA6zup5jdmrUmZ+3UhGvMGBp60aQJZH0NmkNvxSb27IHDxywUE3QHSSzf//TivOXmR0VzmddR1f0xQ+z5N6nX7Re3tQ8zW/Prqf5LdQByQyBFCMQuBVyivGjub1E4E7zNL1vup7Id/L4fc3JsvubQC8dkmohsMQJIOQlPgQ0IBYB58VXfjSVOdJXCCDkvjLSKdTPp157R976NLQdjtVxCg0cTfVMACF7RkgFvUHgpzm/S1Vtndnqx4Pre4MvdQaTAEIO5rjQKghAoA8SQMh9cNDpMgQgEEwCCDmY40KrIACBPkgAIffBQafLEIBAMAkg5GCOC62CAAT6IAGE3AcHnS5DAALBJICQgzkutAoCEOiDBBByHxx0ugwBCASTAEIO5rjQKghAoA8SQMh9cNDpMgQgEEwCCDmY40KrIACBPkgAIffBQafLEIBAMAkg5GCOC62CAAT6IAGE3AcHnS5DAALBJICQgzkutAoCEOiDBBByHxx0ugwBCASTAEIO5rjQKghAoA8SQMh9cNDpMgQgEEwCCDmY40KrIACBPkgAIffBQafLEIBAMAkg5GCOC62CAAT6IAGE3AcHnS5DAALBJICQgzkutAoCEOiDBBByHxx0ugwBCASTAEIO5rjQKghAoA8SQMh9cNDpMgQgEEwCCDmY40KrIACBPkgAIffBQafLEIBAMAkg5GCOC62CAAT6IAGE3AcHnS5DAALBJICQgzkutAoCEOiDBBByHxx0ugwBCASTAEIO5rjQKghAoA8SQMh9cNDpMgQgEEwCCDmY40KrIACBPkgAIffBQafLEIBAMAkg5GCOC62CAAT6IAGE3AcHnS5DAALBJICQgzkutAoCEOiDBBByHxx0ugwBCASTAEIO5rjQKghAoA8SQMh9cNDpMgQgEEwCKS/kzs5OycjIcE33vmdektycbNlvh61cl0mHjMpp2rMvS1FBvuy5zeaL1CVThYhB7Z72Ih2GQhDoswRSVsgvvvexvPjuRxEDd/yBe8nggcvEHcyrpz4if1RWyWUnHtHnBvy/dz8oNfUNcuFxhy103+sWNMhFt9wbUe7CYw+T/Lzcha6LAhCAQHwCKSnk/97zkPwxv0q2WH8dGb3FRtLe3iG3PPq0/DLvDzl4tx1krSEr9+hxQ2OzXHzbvXLpCYen3Xx4+9Mv5MnX3pHLTz5SMmN8W5hfXStXmZPRxcdPWOi+t3d0yBnX3CqF+fly6kH7Smt7u/znrgdFX598ylGslheaKAUgkEZC/uSbH+SB51+RYw/YQ1ZabtmInl099VGZ+9ffMtmIaWHCGKk+QZIJ2Uv/XjLfRF4w30ScTGvNivlis2I+64jxUlZc5KV6ykIAAg4CgV0hn3bVFNlm5HDZabOREQN29vV3SIdZnV16Ys+VbmVNrVx+x/0yacIY6V9WGi730VffyUMvvGb9nZOdJacctJ8sVV4Wfv/1j2fIM2+8J/o1/IYHn7BW35om7rWLDF1pkHz/y29y22PPWK+VGgGdasoX5udFtGvG9zNlmolPa5g1KzNTThy3jwxcql/SyabHunbao9La1m7Fto/eb3dZYcDSEeU++/ZHmfbcy9ZrmaZuPRkNXjYUmlFO0ekKs3LVpHHjB//3quhJTJP2+YQxe0lBVNu/+elXufOJ56w8eiI7fO/Rstrg5eO2XeuddPUtcsbEsVJRWpK0j2SAAATcEQiskC+4+W4ZMWwN2cWEJJxJBTRi2FDXF+X+Y2Knf1ZWy8i115B1VltFnnvrA5nz599ygLmot4GpR5MtZBXplhusK0v1K5Pn3/5QausXyPprribf/jTbhEZGSu2CRnn5/U+kzXxtd35dn/LI0zJz9hwZbvKuv8ZqVp6f5/4uu43aRLbYYJ24I/Hx199bwlx9xRVklMn3+kcz5Idf51hC1Nc06fuab4v117ZODho7/2XuH3LI7jvKsFVXknc++1Jm/TZPPv9hluyx1WZGqCKbrrdWWNZ5uTly4E7bSE5WltxvvlksaGySy08yoY3M0KU5OxY/Yq2hsu7qQ+QNc3LSE9BuW5q2m5BQrKTfUFTyl510hHXyIUEAAv4QCKyQ43VPhbzdRuvLDpuOSEqgqrZOLrt9mvzrkANkmX7l4fx3Pvm8fDPrF7FXkraQddWdbcRlJ3v1aefT1/+qqpYrTQz1FBNPHbhUf0vaF986NUKiTpHGC5+0G6mfce1tljz33Hqz8DGvue9R6wRyyQkTw1LdaO01ZZ/tRoXzTDbfAuabbwN2u2KFLL6a+bM89tKbcs5RB4XL2cfc0bDb1jDUpH0cMmh5OXLfXcP5rn/gCfnVxOOd/bbf/ODLb+WRF1+XsbtsJ+sNXTXpGJABAhBwTyCwQv67usaEF7J7xChVINtvvKFsv8kGSXt56W33SXVdfQ+x6Ar3TCNDOyRhCzlaQHqsQSY0oF/znUlft1exUx6ZblbHc2PKS/ONG72dWXn2FNd3P8+W2x9/tke5H8zq9FYTHrHbohfUNMRw+oSxVkgjVlqYGLK2SVfWusLWpByyTRjnzInjku6a0FX/jQ8+aX2LGD1q46T8yQABCCwcgcAKWcWhuyV010S0DLfacL0eoYxY3T7/pruloakprixHrLWG7Lf9luGQRSwha6z2+JhC3sWEFQaJHRKJtZrUPmiYQcUfnZ5963157cPP4o7WRcdNEA031JgVuO4qaWpusfJuZlbU2228gbWf2E7xhKyhDY2JRyenkBubmuWKux6wQhmaRhomO2yyoRUrj06nm5NDsTnu2Ud2r7oXbrqRGwIQSEQgkEL+1MQnNd456bADpb/j4pt2xPqKbS44HblP91dsu4N6QU0vgKkE9aKbxqFVNPFkqTFSjZUmWiEnE/L/3fOw/D6/Mu4x1ltjiIzdedseY/D82x/IKx98Kv88eP+Y47O0CbE4t7A1GHG+beLFH5qQga769zUnEpWnplhCrjJ5LjPfEHbZfCPZasR64WNEr5DtN5pbW+Xdz76S97/8RnSbXKxvIVp2jOnLcNMnEgQg4D+BwAlZY5cawxy51ppGOt1xU7vrt5gLaD+aC2iJ4pvnHX2ItYK87v7HZPbvf/XI22Lko7s1VIYD+ld4EvJ9z74kM76bGXOrnQrshLF7yaABPW9WmWkuxE15+Clrt4gzbu0cYpXkn2YXxsCl+0fk0Rtc5v41P2EMWUMR1l5hswXQmZxC1tDNPFPPsmY3iIaH7BQdY/d/2lEjBCAQi0CghGyLMvoik7Ph9Q2NcuGUe0xcdhUTn90+/JZuhTvnhjsssZx/zKHW63asePctN5XNzS4FO118671S36C7DUJ37HlZIbeZm1LOvPZW2dqsQnc2q1E7JQplaB5tr4YAliovldMOGxMupyEK3aWx97ZbSEtrmzlx3C67b2XaP7y7/dfd/7g50fwZFrJ9oc256+HyO6ZJZU1dxMno42/Mro7nXw2HUWw+Wrcew056e7lu44s+6ekNOFlZ7KpAJRDoLQKBEvJdZvfDtz//am3LSpS+MFu87n36RSuL7pfVr/O6lU23YOmtwc7V3v/e+dASXHlJsbmRZIB8Zlazmpx7lb0IWet6y9wp95S5U66kqFBWWWGgfPnDT9bq1N6JEa8vvxqpXm/kqpJb28TLq+sWWNvlNl1vmNl5EXrexNOvvytvfPK5dXFzZVO3XkDUW5ntbW+ap7mlxZyM7rQuyuluEr2F3Ba+vr/iwAHy259/mbvqMqyT1HJmxX3y+H2t+nWb29NmD7Z+o1jNbLXTbygq8j232Uw2XTe0fc5OurreZJ1/yF7mZEGCAAT8JxAoIesHXsV55uHjwj1tMrJRQahEnElvpHj1w0+tr+755uKXXqha2+wzjpU05vrSe59IXUODJSxdyTrjsypB3XurF7OcSe9QKzciHGm2nUW/voHZc+yMb6sk9a62arPC1Rswdt58ZNxQhLMuFeQr5oQx7+9KK+69pblg6dyip3l1q90bH39u2t9obsQoNtv+Ii/qaZ4fzf5ljTHrSUFX15p0Rfv0G++Kbv9b0dzVqKt47ZOGSPSmGzspn1dNPLtmwQJL/NuMGC5lZhyik9a1hVlNx3rP/6lJjRDoewQCJeT/u/dhaw+uHUrQ4Xjy1beMaL6KGTPue8NFjyEAgXQmECgh208Vy80JrXj/qKyUuX/Ot7Z67eG4eSKdB4S+QQACfZdAoISsw6Bfy5969W1rJ4V+9ddnWaw6aLm+O0L0HAIQ6DMEAifkPkOejkIAAhCIIoCQmRIQgAAEAkIAIQdkIGgGBCAAAYTMHIAABCAQEAIIOSADQTMgAAEIIGTmAAQgAIGAEEDIARkImgEBCEAAITMHIAABCASEAEIOyEDQDAhAAAIImTkAAQhAICAEEHJABoJmQAACEEDIzAEIQAACASGAkAMyEDQDAhCAAEJmDkAAAhAICAGEHJCBoBkQgAAEEDJzAAIQgEBACCDkgAwEzYAABCCAkJkDEIAABAJCACEHZCBoBgQgAAGEzByAAAQgEBACCDkgA0EzIAABCCBk5gAEIACBgBBAyAEZCJoBAQhAACEzByAAAQgEhABCDshA0AwIQAACCJk5AAEIQCAgBBByQAaCZkAAAhBAyMwBCEAAAgEhgJADMhA0AwIQgABCZg5AAAIQCAgBhByQgaAZEIAABBAycwACEIBAQAgg5IAMBM2AAAQggJCZAxCAAAQCQgAhB2QgaAYEIAABhMwcgAAEIBAQAgg5IANBMyAAAQggZOYABCAAgYAQQMgBGQiaAQEIQAAhMwcgAAEIBIQAQg7IQNAMCEAAAikt5Nc/niG//10pB+y4NSMJAQhAIOUJBFrIL7zzobz0/idy+UlHSGZmZg/Ydz7xvHzz0y9yxSlHpfxAODvw5iefy/TX35WLj58guTk5Kde36ro6ufS2aXLe0YdIUUF+yrWfBkNgSREItJBPu2qKxWXEsDVkvx227DNC/rOyWm544Am54NhDl9S8cH3cN8y3lKffeE8mn3ykZGRkWOU6OjrkvJvukouOm+C6HjJCAAIigRXyH/Or5L/3PCTbbbyBvPTexzFXwem6Qk6liRlLyKnUftoKgSARCKyQr5v2uNTU18u/Dz1QzrnhDjl53D6y3DJLRbCzhXzJCRPl2mmPiUpc02mmzFIVZRF56xub5JJbp0p7e7v1usadN/jH6uE8jc0tct6Nd8opB+1rVnzvyg+/zAl/5W5ra5fbHn9WZv0218q/1pCVZdzo7SQrRhjFrvBcU1eTqfOcIw+Si26513o5KytTzjvqEMnPy5XXP5ohz7z5nvX6sFVXkoN32yG8wvzwy2/l4RdfjzgJdXR0yv3PvywzvptplVlpuWXlyH13leysLOvvH36dI7c++rRcduLhcueTz8v3v/xmvT5+9PayzuqrSFVdvVx2233WaxoGOWPi2B7hhDl//i3XGY4dnZ2SaVa7R++/u3WceMn+BuN8X8NHrW1tctZ1t/c4iVabNlx514PW+7k52XKSGdOlK8rDxbW+rTZczxqXa+57VNrMWC1VXiqnHrx/uJ925pmz58otj04X01TpV1Yip4zfT/Jyu8M75mV56d2P5cX3PrKKlBUXWfUUGPZ20uPtsdVmstnwteL2kTcgsDgJBFLIneZTNunqW2Sf7UbJRmuvaT7ct8lySy8lxx24ZwQbW8j64si11pAVBixtSa65pdX6ul+Ql2fln/37X3Ld/Y9JRWmx7Lblplbc+cMvv7M+pGcdMd7KYws5OztLcozkCk3s86Sx+1ix67Ovv92S1347bCUNRuyPvfymJYvJRj6hL+k9ky3kPCO/bTdaX9rN1/gX3/3Ikt3S5mTR3t4h222ygXw18xf56sefrBOInkg0xRLyGdfcarVlj603NcfMkMdffUv0RHGZia/ricEWspZff43VZMjg5eT5tz+U2gUNsssWG1n/3mmzEUZgneYbxyeWFJ1hBn3thXc/lBUHDpCtRqwnb3/2pfxoJD/ShIv2jREu0uO89uFn8tOceYbnr7Lz5htZLLRsLCF/afp4z/QXZNCyS1s8XjbXBnRcjtp3N1l10HJWv1WQpUVFZvxaZIdNR1gn5Dc/+cJqs/M6wc0PT7dOjjo3Vhu8gjz52ttSZ/rp7I+OWavho30vLymWx82YNTQ1y4XHHSb5ubnWeJx57W2y/pqrcVF4cRqHYyUkEEghf/79LJn6zIvhD+HHX38vD/7v1YgPnPbKFvI5Rx0sJYUF4Y7qB3v3LTeRzddfx3pt0tVTzIeyxFoV2qm6tl4uvf0+OcasAldefmBYyPoBP2Kf0eF8j7/ylnz27Y8R8VyV3MVm1asrvOWjVu12QVvITpG0tLYaud8hJUWF1srZTiqn/5kLmHbeaCH/9sdf1jeAsw4fJ2VGLnbSftorfVvIZ5t6S039zjz6b2c7GpubzbeBu2TsLtvKekOHiN2uURusK7uO2jhcVqX85KtvWyctPXnFSrFCFtFCVvnpCWWEOWnut333tYCr7n1E5tfUmIuXE8NCzsnOFv3GYyc9Wd1tRH6eGeMiM8Z1DY1y0ZR75F+HHCDL9ItcXfc3q+lJh40x/WmzTqL22DpZDF1pkEzcaxe0AIFAEgikkFU0A5fqZ8IH+1nQ7BXz7lttKpsPXzsMMl4MWctvOGyo7G9WtLY87ZWkcxQ0n66ezjSis1fIx+6/h6y0fPyv6c4Pt36w9QMeK8USst2P3czJYouuk4WWnWlWe1PMqi+ekGvqF1jhll1HbSKjNgidZKJTd8jCrJhNaMTZTg1R6I6N6L5vueG6MnqLjeWtT7+Qp157J2acXhkpc2W/qELWlfYtJpwSvRvGbrP9uh5ruFndj9l5m/ChdFV7vrlAqKJV4ep1BQ1NRdd1uwkp/WDCNJebi4v67eOMa2+VNVYeLIftsVM4FBTITyCNgoCDQOCEvMCEBC64+W45Ycxe5uvtMuGmakzxr6rq8GpK30goZBOH3N/Eid//4ht59KU3eqyutbx+aDUGq7sBEgn561m/yF0mLhudFlXI0ScW/fqtX8PjCVmP+9xb78urJkSgqdisFPfedgsr9mzvbFgUIavcVfL3P/eyfGq+BcTaPni6CR0ta06OJ4/fd5GF/PzbHzsfkH0AACAASURBVMgrH3wa94On/DX+60bIemLSE1S8ZPfh61k/mzH7n5VNw1B7mFDVhmaFnijujxkgsKQJBE7Ij7z0unzwxbdxuZxrvrqqkNwKOV64Q8urAPQC24XHHhZXyLbQD9xpGyveaCctuziFbB/3l3l/mFj0x/Lj7N/M9rJO6wSlF8i8CPmh/70mH339XdwV8mATVz4+Kn5vt8dNyMIWcjypL9u/woqPL4yQ49W13NL9I+bOn5VV8sI7H1lxbg2lnD5hrHURkASBIBIInJD1Q7nqCstZuw6ik+5tXXfoqjJul+1cC7nZxG3PMXFbexXmrFOP1b/MxB0njIkr5NNN7HNAvwpr90V02cUl5MqaOiOTVhnQv1+PNmy23lrmQt9mnoRsn7Ri3YCjjLbfZEPZ3mw/jJXcCHnmb/NMSOap8AXIeB8EN0LWWLrG1BPdDKRx5obGxpi8dKeO7tghQSCIBAIl5Ll/zZerpz4i5x9zqBTmh3ZIONN9z7wkM76fGf4wuglZaHmVqn5VdV4ssq/6a/xY48jxQhbn3nCntLa3me1kR4SbonfR6d10h+25s6xp4pSxUqIY8sKGLHQb3hsffx5eDdvHU4FtbXY16A4HLytkXWmffs0tsuYqK1oxVzs9ar6tvG++rcQ6mdl53p3xtTz+ypsRIaHoi3p6o4iOge4u0W2Mdqo34tQwjMbUNbkRckNTk4kp3y07brqh2a3RfZL49fc/pdG8N3SlwaLb9zTEdc5RB5mLvZEXODUMpuEwTbpjpiA/34R9gvjRpE19kUCghKxXz5vMljWnOJ2DUllbJ5ffPk0mGBHqBRu3Qrbj0lqXXuybY1ZY88wzMNZd3ay2zX5iTfGEPMts67r5oaesWO0qKwy0tnkVFxRYFwujxepsq59C1nr120GjucClJwA9WWnMV7fQKSvdmeBFyFr/N7N+NfuXn7O2Cq612sryrYmb60pzn+22MNvL/hH3s2Hv2NA2aaz56P12j7nt7ee5v8uNDz5pXXDcYM3Vpcrscvnh19/CF1/dClnz6Ta3tz/90oxDvtljvaoJ38wRvbvxoF23l7VXW8Vq6+Q775f51bWystlHvZTZjfHpNz9YWxXtE7C9s4RdF31Re8Htc2CErDsQ9IOm4YFN1h0Wl9gTZv9tRWmJbGm2aL33+dfy+/xK2XPrzSPya57Byw6IiPnqjQJPmi1s+sHVmwO2M1/DdSeHnXRVp3uYtxi+jnU135n0hoanzapY5TNs1ZVl0/WGiR5Dxax3EsZKWpfW6Wyb3cd1hqwiq3TtvdWyf1fXWDsd7LwaJ/702x969Evj2V/P/NnaQ6s7QbYduX74op5e8NRtartvuZmJx3Yv+bSdeuFSL945k74+ZNDy1k0udtKT0vTX3zGyrLO2zmkZ3aKXLOnWtLdnfGXx0K102j6tJ3pcVIjPmNusdQzy83R/9gZmf3l3zFfbNGjAMhE37OgWtmffes+ETDaMuJFFx+RZc6FT9x/rljy9yBn93A9l9YG5yUb3Iw8wcWrdUeLcgaI332xq5lq8rYvJ+s37EPCbQGCE7HfHqA8CEIBAqhFAyKk2YrQXAhBIWwIIOW2Hlo5BAAKpRgAhp9qI0V4IQCBtCSDktB1aOgYBCKQaAYScaiNGeyEAgbQlgJDTdmjpGAQgkGoEEHKqjRjthQAE0pYAQk7boaVjEIBAqhFAyKk2YrQXAhBIWwIIOW2Hlo5BAAKpRgAhp9qI0V4IQCBtCSDktB1aOgYBCKQaAYScaiNGeyEAgbQlgJDTdmjpGAQgkGoEEHKqjRjthQAE0pYAQk7boaVjEIBAqhFAyKk2YrQXAhBIWwIIOW2Hlo5BAAKpRgAhp9qI0V4IQCBtCSDktB1aOgYBCKQaAYScaiNGeyEAgbQlgJDTdmjpGAQgkGoEEHKqjRjthQAE0pYAQk7boaVjEIBAqhFAyKk2YrQXAhBIWwIIOW2Hlo5BAAKpRgAhp9qI0V4IQCBtCSDktB1aOgYBCKQaAYScaiNGeyEAgbQlgJDTdmjpGAQgkGoEEHKqjRjthQAE0pYAQk7boaVjEIBAqhFAyKk2YrQXAhBIWwIIOW2Hlo5BAAKpRgAhp9qI0V4IQCBtCSDktB1aOgYBCKQaAYScaiNGeyEAgbQlgJDTdmjpGAQgkGoEEHKqjRjthQAE0pYAQk7boaVjEIBAqhFAyKk2YrQXAhBIWwIIOW2Hlo5BAAKpRgAhxxmxzs5Oae/okA7zHwkCEPCHQGZmpmSZ/zIyMvypMM1qQcgxBlRl3NrWJg0/figd0y8UaW1Os2GnOxBYAgRy8iRzt3OlcMgIycnORsoxhgAhR0GxZVz3zVuSoTImQQACvhLoNFIuWXNzpIyQk8+rtvZ2qW9olI5rd0uemRwQgMAiEcg8cboUFxZIdlbWIpVP10KskKNGtqW1TWrrF0jmjXum65jTLwgscQIdxz4hpcVFkpuTvcTbEqQGIGSEHKT5SFv6CAGEHHugETJC7iMKoJtBIoCQEbKr+UjIwhUmMkHAEwGEjJBdTSCE7AoTmSDgiQBCRsiuJhBCdoWJTBDwRAAhI2RXEwghu8JEJgh4IoCQEbKrCYSQXWEiEwQ8EUDICNnVBELIrjCRCQKeCCBkhOxqAiFkV5jIBAFPBBAyQnY1gRCyK0xkgoAnAggZIbuaQAhZJLPf8mFWHbV/ibS1xGWXkVckGUXl3fkr5/TIm5GTLxkl/UOv6yNNq+fFrS+zYqBIRqb1fmd9pXS2NPbIG86TnRvK29qUcGw76+ZLp50nK1syywa47p9mzMg17S/uar92oWquaVxnwmNmrTBMspZfQ8Q84Uz70fbdO9LZWOtqDvaFTAgZIbua5whZpN+D3bJpn/2l1Pxr7bjs8nc8TgonXB9+v/KAns+5zd1gdyk+7cmQj6t/l+qjjHTjpIrb/w7Lr/7/9pGW9x/rkbP8lt8jpJpsYOsmj5bWT54NZ3P2r+mJy6Th/jMTVlFy7iuSM2zrhH2038zfY5IUjr08Zn2dC6ql9tzNpP23r5M1Oe3fR8gI2dUkR8iRQlZodRdvL61fvBSTXyoKufSCNyV7jc2t/nQ2LZCqQ4oTzo1+08w3hKwcK0/Lx09L/RUxngRoHrhefuPsiG8X8SptuON4afrfDa7mY7pmQsgI2dXcRsg9hWy0JZUHmsckxviavqSF3Prly9L84s0Jx7bt27eslbmdslcdIaWXfhD+u+qgwpihEc2QUVAqFXfVdOedUCG60o1OZVd8Jlkrrht+ueXNqdL42CXS/sePkrPujlJ0xJQIWdeevYm0/fCeqzmZjpkQMkJ2Na8Rciwhm5Xh2w9I/bVjejBc0kJufPxSaXzgLFdj68zkDFs0TP23NE3/T8w6iv/5qOSO3Dv8XqyQjMa0y282ceWuVHv2pka27/aor+Tcl03oY5vQ6yYuXzkub6HbnS4FEDJCdjWXEXJsISu86uNXlo6/fo7gmKpCLjruHskbdZDVF73oVjWx+6Kds4MVUxtFL0pqanzkAml8+Pwe86ji7jrJyA+FPdpmfiS1Z46I82nLkH4PdP9GY90lO0jr5y+6mpfplgkhI2RXcxohRwq55aOnJHfD3UPiajbx1oMj462pKuTMpVeS8ut/Cs+JyjHmQekd7ZFzJDtH+t3XvcOk6pASE3Ouj8xjYsdOyVaNL+je0RFjxpWc/ozkDN8lJO+vX5PaC7ovFrqaoGmSCSEjZFdTGSFHCrn2jA2l5JyXJaOwzOLXcM+p0vTMVWGWqSpk7UC/aa3mYl3oFysW3HiYNL9+V8QcKTr6NsnbemLotfY2qRwburAXkczFPuuiX1eKFdJw5s/daF8pPvXh0EtmC2DlmL75E0YIGSEjZFcEegq5w+zjda4mnSvFJS1k3ZbX8v6jcXsWK8RgZy484CLJ3/vskBvn/ybVxw6KqKfi7loTiiixXqv/797S8sHjPY6TUVBiLvp17S92ERfOWmk9KZv8qWuBuxyylMuGkBGyq0nLCrmnkNtmfSzOr9odf/8i1cetZPFc0kJONqiJVqx6U0vFPd0hiOi8zgt/lWPNTSjtZkUdlbLNT9qXXhLasdHZ0iBVBxUlbFLmgFWk/NqZCJnf1Is5T/gJpygsCDm2kBVTv/vbzG18oa/Ytedubu4+ezulhaz9qLij0txpWBFaBV+5h2jMXFPhuMmSv/tp1r87av6Q6iOXjfkByh6ykRFyaPuaKyEvs7KUXzcLISNkhJxw6dL1JkKOL2S9GKUrZTvp3uT8HY5ZonfqLeq2N7sPzhW+3kFX889h1lvOOwZrzxxpdk98GHP6ZJpbqsvN3YWWkFubpWp8aEdGvJQ1eG0pu/JzhIyQETJCdkMgvpC1dPl1MyVzmVWsilpn/E9aP56e0kLWZ2H0e6B7d4UdtogIVxxonpcR79kVUTsxkl3Uy9lgNyk5LbQK15Qsv7sRS71cxJBjjxkhiygurJATC1nMA3363dccpqYXzQr2Oz+hYLKHbiqlF74dWkWahxVVHbFMXINU3Fkd3tFRd+We0vpR6BkYzuR8loXXFbJ1krn6e8kcuJp1iLoLt5Hs1TeRggMvsf7Wu+n0rrq4KY7Q4+UvNvufc7v2P7f//JnUTBqeejb1ocUIGSG7mkYIOYmQDcWCsZdJwR6nx+QZ8062AauaC1k/hvJ3mq1eeht2nORcmdaeY+54+77nHW9+Czl3o33MVrRHwgLOXGqwZFYsZ/1dc8qa0j7324Rzx9nm1s+el7rLdo7fP70xxOxd1lR/7VhzB+T9ruZlumVCyAjZ1ZxGyMmFrCCdd6c5wcb8Ch71tV6feKaPo4xOOWttY+15tlPo+Rndd7bZr/stZK3XKdWk/YlqeNayQ6Tsmh/Cr2ocWePJ0alw/H8kf7d/dvcvxpPxXE3SNMiEkBGyq2mMkN0JWffn6j7d6BQvJlp65QzJHrxOKLuJx9Zfubv15DQ75ay3c+iCYdfqsXXGC1J36Y4xx6w3hFx64VuSPXSziOM1v3G3LLjhUFfzpuK+JsnI7no2henfgluOkOZXbg+XdT5hTl9ccPPh0vxq9/uuDpJGmRAyQnY1nRGyOyErzGjJ6GtxL1JF3WIcHgy9WNYlYfu1TrPft0ofvBPnQtrCPg+54e6TpenZaxKOv8aNSy+KXLXrjSJ6w4irFK9/MQq3vPeI1F+1n6tq0zUTQkbIruY2QnYvZAVq7VDo+oWPhEK26GdI2dXfStbA1eOOhW4vqz1zI/N+/F/k6A0hW31xPJg/eV9id6Hs8k8ka+X4F+pUxCrkvp4QMkJ29RlAyK4wec6UvdpGor+ukdV/sLSbO/+azLOD2376xHO9Qakge40tpGDPM8wvmywtbWY3RcNdJ1sPZyKFCCBkhOzqs4CQXWEiEwQ8EUDICNnVBELIrjCRCQKeCCBkhOxqAiFkV5jIBAFPBBAyQnY1gRCyK0xkgoAnAggZIbuaQAjZFSYyQcATAYSMkF1NIITsChOZIOCJAEJGyK4mEEJ2hYlMEPBEACEjZFcTCCG7wkQmCHgigJARsqsJhJBdYSITBDwRQMgI2dUEQsiuMJEJAp4IIGSE7GoCIWRXmMgEAU8EEDJCdjWBekPI+TufIIWHXhs+vpsfw7Qzl1//s2QuvWK4bPMb95hHQh6StC95Ox4nRXrMTPPzQ46kj7VccP146TC/3BErZRSUmp+1rwm/VXf5aGn99NmExysyv4KR1/UrGJox+olvmUuvJOXX/xSuI94T4aIf7lN3yQ7S+vmLSfuqP7xq/QCrI8U7hv6enf6unaamF26UhtuP61F/zro7SMmZ/0t+3K4cnS2N5temCyPyZ5YvK+VT5oVfqzl5qLTP+z5unWWTP5WsldYLtevp/0rDvf+KyBvvec3JGtn+21fmdwLXipsta7mhUnTSA5LddWw7Y2djnSy4aYK0vN87D0JCyLGHhJ9wiuKyOISsh6w6pEQ6m7p/gj7m8ET9XJLmSSZk66ftVahdvw4d75PYMPU0aZp+Zcy3nT+j1P7LDKk5LSSKeKliaqNk5IR+3LOj+nepPmpgpJwWUcgdlXOk+pgVkjnH/GjoDCPZrmctd+UOmpBVcFWHlgZKyEXH3iV5WyY+uXc21EjVhH4xfygg6cAkyICQEbKr+bO4hNz27VtSe94WCdukv1VXsO95EXmSCTn6cZjtsz6W1i9ftn6YNHejvSMelalPIGt6rudzgvN3PtGs6LtfT/ZDnM7VW9WECulcUO2LkK0Tl1l56go0UYq1evRTyO2zv0x4/M7WJqk9Y0Rkn6NWyPpmrJWvXSjZCrnsP1/0bIM56WYtv2b49VjtbP99ptT/Z88eZYuPv1dytxgffl0XBy3vP2rGrkpyho82j0gN/cagJuv51GNzXX1+3GZCyAjZ1VxZXEJO9tty2tgK82OiGWaV7EyJhBwd3qjUD5H5MDlT9AcxVh59YHw//e23rqQnDj2BxEqFB/9X8kefGn4r5m/qLeIKWSvVr+4qsngpa+X1pezyj3u87aeQk52QYrUtOmRh56k6rFx01Rmdkgk51jEyCstEv81Yqa1FKvWh/i6SfpvQbxV2apg2SZqevCKiZJb5HUTrZ6m6fjyg5YPHpP6/+7io3V0WhBybEyGLKC69LeT22V9I1qBQDLPuom3N6vWVmCOjD3Evu/o7672OqrnhH91MJOSIlerBReb5uw0x63aGJFo/fU7qLt+lR77ya2dK5oBVrNdbv35D6i7YMnZdd9VKRkFJwnyLGkMOdd78KOqY+D+KulC/7WeqW5QYsp9C7vjzJ6k+IcTVmRankMtv+EX0h1w1tX3zptSePyrm2GavZn5F5eLuX1FZFA7x9IyQEXK8uRHxem8LufmlWyRvuyNDrvn7V6k+rvuCnbMhJadNl5wNdrVeanzwHCk44CLr3/GEXPzvJyR3wz1CVbS3SeXYnLj91Qs4peYikpXMzyRVHhh54U9fzt30ACk2F3vs5OZCXOU4syJvi1yRa/lFEXLrJ09Lzvqh/lefsKp0/DkrZn/sk5D+qGhGTvcKMXArZMdPVdVfM0Za3ulmqx1bnEJ2nrirj1xWOmr+iDtX+k1rEckKzSUVtwrcj4SQY1NkhRzFpbeF3PLOg5Kz3k6iXzc1JROdxicb7/mnFE68wcofT8gVd1aZOsutPA33nCpNz1wV/3NjfnLJijV3pWRt0Gx6YU8v8DlT/l5nSuGBlyStZ1GEXHXEMlJx659W3fFW8YXjLpf83SdZeapPWk3KHb/8HDQhq8xKz38jxCrGSXBxCTlnuP6YbPeumWSr3rIrzTe6waFdGokWEPEnW+x3EHJsLgg5iktvC1kvsDUYwZZd8Zl15KYnJ0vDtNMjWpGz/mgpmRT6RWZr+1NWlhSOnWz9HU/I1ravrp0VVQeZcEVL7HCFfSDnKile6KT04ncle7WNrSItHzxuYojmoqAjVdz2t2SU9A/1w5wA9EQQKy2KkFUUFY5wSCxx9DMxdumKsev7zj4FTcjanlIT6842MW9NrZ+bX9W+pPtXtReXkPVnswrHXm61obNuvlQdvlRClxaYk26BfdJNEj5KWFHUmwg5Ni2EHMWlt4Uc2kY23MgjdNGss2mB2QJXHNGK8htnS2b/0HavyjHZYu222Pts6++4Qnb8QGfV+ALRlXWi5JTXghsPlebX7+6RPXvoZlJ6YffFvGjJRQhwvNn2ZsIGfgq5YJ9zpWD/C6wqa8/ZVNq+f7e7esfeY3vHSm8JORHHlrfuk/rruncr2HmjL+opu4zcAqm4t/tEWTNpuLSb39vTtLiEXDjhesk3e9Q1JdujrHlyTBisxITDQpPVxPMPjB/PTzjhot5EyLFpIeQoLr0t5I75s6X62MFSctpTJka8m3V051YxjYNWTA3JtP3Xz6Xm3+tK4WHXSv5OJ1iv9YqQbzlSml++NeYMiYg3njREOsw2Kk0aBy86Ykq4TKKvvou0QtYYuImFh2PEUau50ks/kOxVQ1vN9KQlHe29tkJOJJqFEbLFbYdjpagr/OS8oWRxCbnoqFslb5vDI+ZXov5F3CQT53rDwojYzouQEbKredPrQjYXUPRCSmbZANGfs9fU+sXLUnfxdta/nV8pay/cWtq+es1cXLvfXGQ7sPeEfP1B0vzm1Jh8Sv71uOSMCO1jVWkvMPLWVH7Tb5LZb3nr3/VX7y8t7z4cl++iCLnqyAHSWfOnlP33K8la4R9W3VUHF4d/udm539o6GURt1fMzZFF77mZx+9Zp7nhsn2e2h0WlWCtkO0vF7fMlo9jcbGFS01NXSMN9kxbfCvmQqyV/l5OsY7fP+UZqTg2xjZdyzN71klMfDb3NCjkhKz/eZIUcRbG3heyM21l7fXWfp2Pl4YwF21IpOeM560KgprgrZMfV8KoEW97s7jpXvrVnbyJtP7wXcz5FisXsyDggtCMjIjwQY7+zs7JFEXKNuUjX/vuPVgxbY9ma7LsLc9YcJSXnv269puECXaX2ppCTXfiKBS6RkKPfq5q4lJSe81LCW6djHWNR9iHnjz5FCg/+v5BfY4TLoo+j8WZdJFjJfAuxvo34kFghx4aIkBe3kBuqpeqwCuuouZuNkeITp1n/rpu8m3TM/c5sxg8976D5ldtkwZQjrH+XXvCmZK+xeej1OM+ycF5ga37uOllw14nxPzZmG5O1nakrJROO8+JZ9dHLicaWi08JrYj1Di+9DTxRWiQhO3Z1hFfDXScufUaESk2TtUfZXGwSlztHltQ+5GjGRUffLnlbT7D6oLebd5r/Ej3LIhbfRRFy9hrmusAF8a8LRB/H+U2o7edPpXZS6KKk14SQYxNEyFFcen2FrM8GMHdrWclxYar9j5nSYb5C2ntvnRfm9MKaSjCRkPVWZ73l2Y1ks4dtLaXndt2Q4mLVozFPjX1qanzsYutEondyaar55zBzcehr34Vcay54tXVd8NL90LovWpM+20IlYYmsK/xj/ZFiQtYmR9zmrndUdu33TXSLtRP0ogjZOq7jAnDNv9cx1ypi3JbddSBnG6tNGKnDhJH8SAg5NkWEHMVlsQrZHFtXxFnLdj83QJujcUndh2snN0Lu8UFL8HQxZ1ik+dXbZcHNoYs8cZNzRW3iiCo/O1k3lehNDwnSoqyQnUKWrGyzog/dcKJfszPyi6x/R9zUkIJCzjahl9Ku0IsTX28LufSS9yR7yEYhnvWVUjUxtHUxOuXvava/H/Sf7rHWWL1PCSHHBomQo7gsbiHroyD1a7Qz6YUz564Ht0IuPfdlyR62TbiqGnOLbru5VdeZnF/39fVQTDixUDWf80KUXZ8+zKbmX6HbwBMlz0LW49/6l2SURu6ZjQgDpKCQlZlzb7LNsLeFrHu3rTBUV2qb9VGPhyNFbHcz+RruPFGanr8u2VC7fh8hI2RXk2VxC1kbFf20suh4o1shW3XdZ7bMZTseMmO+CuttxRoe0X2wzlR75khpm/mhKy66D9q+fdsuUH38ytLx189Jy/sh5PwdjjF3K94YPlbTS1Ok4daju4/di0LW7XeJUqd5sI9eSHWmRBf1IjOauybv775rUt/rdSGbY+jWN90C1506zQ4W81Q98w0oI9fsKc/svniX7NGhSSdAjAwIGSG7mjdLQsiFh11n9hkfb7Wv7VvzsJfzIh/2sjBC1jqct1HH63SyB6bHKpfsxBHvWH4I2TrZOG9+iX6edG8KOdnMifGkNddCNnXn73KyFB7Sfav74hCydiln+C7mNupnEvZOrw/odQK/E0JGyK7mVK8I2dzUYT9fOPTA79AuCztlFFVYIQFN1Seamy+iHqRTeqHZZbG646KeubPOTSq/8Vdzx9+g7qxm9dNwx/HmlzJuclO8R57y634K/3pJy/sPS/1VoQttyZIl5Ou6Hw4U62FGlnCdj/w8ff3wRT27fmuHxCDzXAXdbRH9BDgVsuNXQ+Idw3qYfdfT9qxfDDE8olPOOvqLIc8n61b4fWuFrHcqOpIl5Jvnhl+J1x47Q8Xt5jb0oq69yc/8X49fDInVGOui3h1Vobf0pBDVBrcdKNj/QinYR+8E7Y4RW3eUnr6BtdWtNxJCjk2VGHIUl94Qcm9MaOqEQCoTQMgI2dX8RciuMJEJAp4IIGSE7GoCIWRXmMgEAU8EEDJCdjWBELIrTGSCgCcCCBkhu5pACNkVJjJBwBMBhIyQXU0ghOwKE5kg4IkAQkbIriYQQnaFiUwQ8EQAISNkVxMIIbvCRCYIeCKAkBGyqwmEkF1hIhMEPBFAyAjZ1QRCyK4wkQkCngggZITsagKFhXyT+YVlfdQkCQIQ8JeAedBVx9GPSmlxkeTm+PMLJP42cMnVxq3TUexb29qkobFJqn/6Qkqmn7nkRoYjQyBNCdTtdqmUr7y2FBbkS042QnYOM0KOmvQd5ueAmlpapbG5Wep++0EK37xBsit/YbWcpnKgW4uJgHn4U1u/FaVh1PFSsvwQKcjLk/zcHMnM7P6xg8XUkkAfBiFHDU+neZJYu5Fya2ubNLa0iK6YSRCAgD8EdEVckJsrOSZUkWVknKE/8ksKE0DIMSaDSllXym3mP/03CQIQ8IeACjjbiFhXxsi4J1OEnGCeIWN/PoTUAoGIOCmr4rgTAiHzWYEABCAQEAIIOSADQTMgAAEIIGTmAAQgAIGAEEDIARkImgEBCEAAITMHIAABCASEAEIOyEDQDAhAAAIImTkAAQhAICAEEHJABoJmQAACEEDIzAEIQAACASGAkAMyEDQDAhCAAEJmDkAAAhAICAGEHJCBoBkQgAAEEDJzAAIQgEBACCDkgAwEzYAABCCAkJkDEIAABAJCACEHZCBoBgQgAAGEzByAAAQgEBACCDkgA0EzIAABCCBk5gAEIACBgBBAyAEZCJoBAQhAACEzByAAAQgEhABCDshA0AwIQAACCJk5AAEIQCAgBBByQAaCZkAAAhBAyMwBY488KQAAGilJREFUCEAAAgEhgJADMhA0AwIQgABCZg5AAAIQCAgBhByQgaAZEIAABBAycwACEIBAQAgg5IAMBM2AAAQggJCZAxCAAAQCQgAhB2QgaAYEIAABhMwcgAAEIBAQAgg5IANBMyAAAQggZOYABCAAgYAQQMgBGQiaAQEIQAAhMwcgAAEIBIQAQg7IQNAMCEAAAgiZOQABCEAgIAQQckAGgmZAAAIQQMhJ5kBnZyezBAIQ8IlARkaGTzWlZzUIOc64dnR0SlNLi3S8e5+0znhGpL01PWcAvYLA4iCQlSM5642WzI3HSX5urmRmIuZY2BFyDCodHR2yoKZSWm/c37zLCnlxfF45Rl8hkCE5xz4kRWX9jJQz+0qnXfcTIUeh0pVxY3OTNF+7p0hbi2uQZIQABFwSyM6VvBOfkIK8fFbKUcgQchSQ1rZ2qW9okM7rdnc5u8gGAQgsLIGME56S4sJCycnOWtiiaZ0fIUcNb0trm9TWL5DMG80KmQQBCPQKgY5jn5DS4iLJzcnulfpTtVKEjJBTde7S7hQmgJBjDx5CRsgp/LGm6alKACEjZFdzl5CFK0xkgoAnAggZIbuaQAjZFSYyQcATAYSMkF1NIITsChOZIOCJAEJGyK4mEEJ2hYlMEPBEACEjZFcTCCG7wkQmCHgigJARsqsJhJBdYSITBDwRQMgI2dUEQsiuMJEJAp4IIGSE7GoCIWRXmMgEAU8EEDJCdjWBELIrTGSCgCcCCBkhu5pACNkVJjJBwBMBhIyQXU0ghOwKE5kg4IkAQkbIriYQQnaFiUwQ8EQAISNkVxMIIbvCRCYIeCKAkBGyqwmEkF1hIhMEPBFAyAjZ1QRCyK4wkQkCngggZITsagIhZFeYyAQBTwQQMkJ2NYEQsitMZIKAJwIIGSG7mkAI2RUmMkHAEwGEjJBdTSCE7AoTmSDgiQBCRsiuJhBCdoWJTBDwRAAhI2RXEwghu8JEJgh4IoCQEbKrCYSQXWEiEwQ8EUDICNnVBELIrjCRCQKeCCBkhOxqAgVdyGXX/CCZZctYfam/5kBp/fS5Hv3K2+owKTz06tDrHR1SNaEiYd8r7qoJv193wdbS9tMnPfKXXvCmZK24jnk9w/zP/NfZkbDOqkPLkvIuGHeF5O90nGRk54fq7GiTjqrfpfasEdJR/UfS8uU3z5GM/OLY+Uz72ud8K433nymtX72atC6LQWZWqH+mHbXnjZL2X2YkLSdZ2VJx+3xTNruLd5vE63uYsx7HjIuBmLD+6uNXkc56U3ecVLDXWZK/1xmSkaP8Mq0x6WxplIb7JknzCzcmb/sSzIGQEbKr6Rd0IZdPmSeZ5ctafam7cg9p/eipHv3K3+5IKTxiSvj1lncetOQdL/V7sFsMtWeOlLaZH/bIWnb5J5K18nBXDDVT5QFGbHFS9qojpPTS90Pyi5M6quZJ9dHLJTxexd21RsglLtrUKQ1TT5Om6f9xxUAz6Ump9vQNktZdcubzkrPujhH54vXdyTlpxSZD1eFLS2fd3z2yZptxKDXjkTAZOVdNXEo6F1S5OdRiz4OQYyPP6JzxauLT9GIfqiV7wHQUcjJBLk4h5wzdXEoufLPnIHeaaairZEfqbGuWqnFm9RcnuRdyqIKmxy+RhgfOjllbLFkmOqnYlSxMOT+EnFFQLBV31UVyMtJt/+1rc8JcXzJyC1ydHJbsp8x8QTj2CSktLpLcnK5vFku6QQE5PkKOGoh0FXJnQ41UHVaeVEZuVsjNr94uC24+fOGncHaO9LuvJVyuY94PUn3y6hH1ZA1eW8qu/Dz8WvOrd5hjTYx5LKeQGx86RxofvbhHvoq7zCq6oHsVvTCr1/rLdpaWz56P38/sPNOfph7vuzlG3QVbSevXry80w373t3WFVkyEor7KrIL79ajDmUdFXfPPYQt9nN4ugJBjE0bIfUTI2s0FU46Q5ldu6/kBXsiQxaIKufhfj0vuiD2t43c21UvVIbHDDTnDd5GS058Jt7NyjFlFdbT3lK0jZBFPyFrIuTKtv2o/aXnvkYQMwm+2t0rl2Ny4bup3b6NIbs8VfK8K2TFW8Y6TOWBVKb/2x25+CcJHvS3eePUjZITsau6l3wpZI1LdoYDKA/XiT2SUamFDFosq5AgxTt5VWj7plm704FTc2xD++l1/zRhpeeeBRRZyxdTG0IUvk5qenCwN005PKOT2nz+TrJXWs/JUTegXNw5r90cvpDlDBUtayNruiju7Y8dVhyW+qOvqg+FzJoSMkF1NqXQTcmdrk3TM/02ylh1i9b99zjdSc+o/IlgsDiFnVgyU8pvnul61FR19u+RtPcHK3/HXz1J9/MqLLuR7FkhGXmFIyI+ZOPKDPePITgY1Z2woZZd9FMr/3LXScNdJPY6dZy6cFnVdOK2bvJuUTJqetG/OYyxyyOIBszujK9YeayxdTfIAZELICNnVNExHIVcdXCL97m8N97/m1GFGzF+H/14cQtYtc2VXdG0ja22WyvHxL9Zpw/I2GyNFJ05LKDk3MWTdjhbR90nrS/vPn/aYC04GusJ1xmFjrXj7TTOx8Kwcqx4rv4tQgh9CLtj7HCk44MLu9pvtczVnbSTtsz42r6XO9XmEjJD7rpDHF0juyL2k+J+PhRi0tUjluLxFFrLGc1u/jbFToqtG3cscnXI2MKvI00Jb9Dpq/5LqI0J7qeOl7CEjpfQS3RoXSrGkmEzIGYXlUn7T7O69yglOBNFCLTr2Tsnb8lDr2DUnD5X2ed93N9WsUPvpSlX78udPUn3CKgst5ISdj9Nfu4zuCc9eY/MeVegWubpLd5S2WUm2xCU7+GJ4HyHHhsxFvSguablCNkLW5BRY85tTZcH1B1mvL+wKOdnnNZY880YdLEXH3R2SWM0fUn1kaC91vJS14rpmRf1Z+O1kQk7WJo2b15w4RNr/nBUza4SQu+Ls9mvts7+Umn+tHS5XcsazkrPeztbfdrsWdoWcrL3JttxlrzpSSs57xYRiimJWVX/deGl5675kh1li7yNkhOxq8qWzkHXFGH2xp7OherEI2blCd7VCtm4e+cAXIXfMny01J60uGk+Pl5xCrZrY32wpq5TyKXPNTTgDQ+J17PToEc4wd95Zr3UlNxf12sw3DI3tx0v11451NV8z+69gffPRm22iU/uvX0jNv/XuyuAlhIyQXc3KdBayAig89BrJ3/lEi4W9Ul3YFfKi7LLQXQtlk0OxW92VUHVQ6CJbvJS70T5SfGr39rRkK2QVaEfN7+HqspbvvnBZf+Mh0vL6PQmP52RQfdyK0vH3r5JrVvXFXat6DQW0znhBMvstb8IgIZE2PnaxND54jhVLtmLKXcmNkBf1ol6iTmiYR7cWZlZ03+Go2xx1u2PQEkJGyK7mZLoLWSE4V3i6g0AlbafeujEks/8gKb/x16TSsjM4TxwaG9XbiKNTohhywd5nmYtfXTeKJNlPbDFxXJSrOXVN6zkYodc1Vmy2Dba3mT3JOZaMVcqaKg8wWwj1QlqOuUFkavfqe0kJ2eZTdPRtZodK9800ycIfrj4YPmdCyAjZ1ZTqC0LOGjhUyq4OCSc69ZaQo6VXa7aWtVk7A2Kn8lv+CD9EqWHqv2M+hyLhRT3HhTc9QtMTl0vD/WfEPV6EkM2dbXqHm6bSi9+V7NU2tv6tDw2yHxDU2dwgVQeH4rcZRsgVi0HIFXdWm7sOS61jtnw8XerNs0xiJpchFFcfiF7KhJARsqup1ReEbInmoncke/VNFquQSy962xxzU+uYGj+tPnZQzDHJWs6cMK7qPmHojQ0a645OyXZZ6D5m3c9sJXNRz7opJk6KJ+QM82S9CnNy0NQ26yPJXmVD6996y7fe+q1pcQm5ZNLTkrP+6FAPEm0dNE9+6/dA952NrJBdffQDkYldFlHD0FeELNm55jkMzYtVyBlFFVJxR2X4mC1vPyD1146JaIM+ya78xtkmLht66Ezbd+9I7bmbxfywJBOyFnKKtuXtaeZ442LWFU/ImrniXnNjSW5kzNspucUl5Ax91Oe07v3k9WaXTIvZLROdCsdeLvl7TAq/jJAD4VpXjUDIfVXIpt+5mx4gxSdF3pLcmyELRZ23wzFSNNHxrF6zp7nFPEK0s2quZA/bWrJWcNxFqHFbvfhnYsCxkhsh5264hxT/+4luOZk4sMaDo1MiIRce/H+SP/qUcJFW88ChOvPgITstipCti5Dmv0Sp7vxR5vnQ8yKy6DM+9FkfdupsrJPml2+R9rnfSWZJf8nb5WQT6hkQfr/5hZtkwe3HupLB4sxEyCI2bYTch4WsXXc+X1n/7m0h6zFUbiq5RKmzsVaqjxkk+v/xkhsha1nnRcy2r1+T2hg3riQSslWH46Jf1cHF0tm8wJOQ3civ+rjBZreH+bYQlYqOuUP0RwiSpdavXpG6C7dNlm2JvI+QEbKriddnQhZdNDJKlpKK2/4Ks1kcQtaDZRSWSdGxd4Wf/mY3QB+org+Tj/VUuugBdCvknH9saW6ieC1cPFqo0cLVx1XaF/XsQuU3zTG7K0LbyaJDAIuyQnYzGeMJ2eJnHiladNRtkrvJ/j2qav/pY1lw6zExf2jAzXEXRx6EjJBdzbOgC9lVJ8gEgYATQMgI2dUURciuMJEJAp4IIGSE7GoCIWRXmMgEAU8EEDJCdjWBELIrTGSCgCcCCBkhu5pACNkVJjJBwBMBhIyQXU0ghOwKE5kg4IkAQkbIriYQQnaFiUwQ8EQAISNkVxMIIbvCRCYIeCKAkBGyqwmEkF1hIhMEPBFAyAjZ1QRCyK4wkQkCngggZITsagIhZFeYyAQBTwQQMkJ2NYEQsitMZIKAJwIIGSG7mkAI2RUmMkHAEwGEjJBdTSCE7AoTmSDgiQBCRsiuJhBCdoWJTBDwRAAhI2RXEwghu8JEJgh4IoCQEbKrCYSQXWEiEwQ8EUDICNnVBELIrjCRCQKeCCBkhOxqAiFkV5jIBAFPBBAyQnY1gRCyK0xkgoAnAggZIbuaQAjZFSYyQcATAYSMkF1NIITsChOZIOCJAEJGyK4mEEJ2hYlMEPBEACEjZFcTCCG7wkQmCHgigJARsqsJhJBdYSITBDwRQMgI2dUEQsiuMJEJAp4IIGSE7GoCqZDrGxql6Y07JP/zJ1yVIRMEIOCeQNO6e0v+FodIcWGh5OZkuy/YB3JmdM54tbMP9NN1F9va26WxqUlq6hsk45XrpWDWG67LkhECEEhMoHGVUdK5zfFSVlwoBfn5kp2VBTIHAYQcNR06Ojqkpa1NmppbrJVyY1MzEwYCEPCJQEF+nlkZF0h+Xq7kZmdLZmamTzWnRzUIOcY4thsptxopt7S0iv6bBAEI+EMgywg4NzdHcoyM9d+kSAIIOc6M0JVyR0endHQS0eFDAwG/CGRmZJhVsf6HjGMxRch+zTTqgQAEIOCRAEL2CJDiEIAABPwigJD9Ikk9EIAABDwSQMgeAVIcAhCAgF8EELJfJKkHAhCAgEcCCNkjQIpDAAIQ8IsAQvaLJPVAAAIQ8EgAIXsESHEIQAACfhFAyH6RpB4IQAACHgkgZI8AKQ4BCEDALwII2S+S1AMBCEDAIwGE7BEgxSEAAQj4RQAh+0WSeiAAAQh4JICQPQKkOAQgAAG/CCBkv0hSDwQgAAGPBBCyR4AUhwAEIOAXAYTsF0nqgQAEIOCRAEL2CJDiEIAABPwigJD9Ikk9EIAABDwSQMgeAVIcAhCAgF8EELJfJKkHAhCAgEcCCNkjQIpDAAIQ8IsAQvaLJPVAAAIQ8EgAIXsESHEIQAACfhFAyH6RpB4IQAACHgkgZI8AKQ4BCEDALwII2S+S1AMBCEDAIwGE7BEgxSEAAQj4RQAh+0WSeiAAAQh4JICQPQKkOAQgAAG/CCBkv0hSDwQgAAGPBBCyR4AUhwAEIOAXAYTsF0nqgQAEIOCRAEL2CJDiEIAABPwigJD9Ikk9EIAABDwSQMgeAVIcAhCAgF8EELJfJKkHAhCAgEcCCNkjQIpDAAIQ8IsAQvaLJPVAAAIQ8EgAIXsESHEIQAACfhFAyH6RpB4IQAACHgkgZI8AKQ4BCEDALwII2S+S1AMBCEDAIwGE7BEgxSEAAQj4RQAh+0WSeiAAAQh4JICQPQKkOAQgAAG/CCBkv0hSDwQgAAGPBBCyR4AUhwAEIOAXAYTsF0nqgQAEIOCRAEL2CJDiEIAABPwigJD9Ikk9EIAABDwSQMgeAVIcAhCAgF8EELJfJKkHAhCAgEcCCNkjQIpDAAIQ8IsAQvaLJPVAAAIQ8EgAIXsESHEIQAACfhFAyH6RpB4IQAACHgkgZI8AKQ4BCEDALwII2S+S1AMBCEDAIwGE7BEgxSEAAQj4RQAh+0WSeiAAAQh4JICQPQKkOAQgAAG/CCBkv0hSDwQgAAGPBBCyR4AUhwAEIOAXAYTsF0nqgQAEIOCRAEL2CJDiEIAABPwigJD9Ikk9EIAABDwSQMgeAVIcAhCAgF8EELJfJKkHAhCAgEcCCNkjQIpDAAIQ8IsAQvaLJPVAAAIQ8EgAIXsESHEIQAACfhFAyH6RpB4IQAACHgkgZI8AKQ4BCEDALwII2S+S1AMBCEDAIwGE7BEgxSEAAQj4RQAh+0WSeiAAAQh4JICQPQKkOAQgAAG/CCBkv0hSDwQgAAGPBBCyR4AUhwAEIOAXAYTsF0nqgQAEIOCRAEL2CJDiEIAABPwigJD9Ikk9EIAABDwSQMgeAVIcAhCAgF8EELJfJKkHAhCAgEcCCNkjQIpDAAIQ8IsAQvaLJPVAAAIQ8EgAIXsESHEIQAACfhFAyH6RpB4IQAACHgkgZI8AKQ4BCEDALwII2S+S1AMBCEDAIwGE7BEgxSEAAQj4RQAh+0WSeiAAAQh4JICQPQKkOAQgAAG/CCBkv0hSDwQgAAGPBBCyR4AUhwAEIOAXAYTsF0nqgQAEIOCRAEL2CJDiEIAABPwigJD9Ikk9EIAABDwSQMgeAVIcAhCAgF8EELJfJKkHAhCAgEcCCNkjQIpDAAIQ8IsAQvaLJPVAAAIQ8EgAIXsESHEIQAACfhFAyH6RpB4IQAACHgkgZI8AKQ4BCEDALwII2S+S1AMBCEDAIwGE7BEgxSEAAQj4RQAh+0WSeiAAAQh4JICQPQKkOAQgAAG/CCBkv0hSDwQgAAGPBBCyR4AUhwAEIOAXAYTsF0nqgQAEIOCRAEL2CJDiEIAABPwigJD9Ikk9EIAABDwSQMgeAVIcAhCAgF8EELJfJKkHAhCAgEcCCNkjQIpDAAIQ8IsAQvaLJPVAAAIQ8EgAIXsESHEIQAACfhFAyH6RpB4IQAACHgkgZI8AKQ4BCEDALwII2S+S1AMBCEDAIwGE7BEgxSEAAQj4RQAh+0WSeiAAAQh4JICQPQKkOAQgAAG/CCBkv0hSDwQgAAGPBBCyR4AUhwAEIOAXAYTsF0nqgQAEIOCRAEL2CJDiEIAABPwigJD9Ikk9EIAABDwSQMgeAVIcAhCAgF8EELJfJKkHAhCAgEcCCNkjQIpDAAIQ8IsAQvaLJPVAAAIQ8EgAIXsESHEIQAACfhFAyH6RpB4IQAACHgkgZI8AKQ4BCEDALwII2S+S1AMBCEDAIwGE7BEgxSEAAQj4RQAh+0WSeiAAAQh4JICQPQKkOAQgAAG/CCBkv0hSDwQgAAGPBBCyR4AUhwAEIOAXAYTsF0nqgQAEIOCRAEL2CJDiEIAABPwigJD9Ikk9EIAABDwSQMgeAVIcAhCAgF8EELJfJKkHAhCAgEcCCNkjQIpDAAIQ8IsAQvaLJPVAAAIQ8EgAIXsESHEIQAACfhFAyH6RpB4IQAACHgkgZI8AKQ4BCEDALwII2S+S1AMBCEDAIwGE7BEgxSEAAQj4RQAh+0WSeiAAAQh4JICQPQKkOAQgAAG/CCBkv0hSDwQgAAGPBBCyR4AUhwAEIOAXAYTsF0nqgQAEIOCRAEL2CJDiEIAABPwigJD9Ikk9EIAABDwSQMgeAVIcAhCAgF8EELJfJKkHAhCAgEcCCNkjQIpDAAIQ8IsAQvaLJPVAAAIQ8EgAIXsESHEIQAACfhFAyH6RpB4IQAACHgkgZI8AKQ4BCEDALwII2S+S1AMBCEDAIwGE7BEgxSEAAQj4RQAh+0WSeiAAAQh4JICQPQKkOAQgAAG/CCBkv0hSDwQgAAGPBBCyR4AUhwAEIOAXAYTsF0nqgQAEIOCRAEL2CJDiEIAABPwigJD9Ikk9EIAABDwSQMgeAVIcAhCAgF8EELJfJKkHAhCAgEcCCNkjQIpDAAIQ8IsAQvaLJPVAAAIQ8EgAIXsESHEIQAACfhFAyH6RpB4IQAACHgkgZI8AKQ4BCEDALwII2S+S1AMBCEDAIwGE7BEgxSEAAQj4RQAh+0WSeiAAAQh4JICQPQKkOAQgAAG/CCBkv0hSDwQgAAGPBBCyR4AUhwAEIOAXAYTsF0nqgQAEIOCRAEL2CJDiEIAABPwigJD9Ikk9EIAABDwSQMgeAVIcAhCAgF8EELJfJKkHAhCAgEcCCNkjQIpDAAIQ8IsAQvaLJPVAAAIQ8EgAIXsESHEIQAACfhFAyH6RpB4IQAACHgkgZI8AKQ4BCEDALwII2S+S1AMBCEDAIwGE7BEgxSEAAQj4RQAh+0WSeiAAAQh4JICQPQKkOAQgAAG/CCBkv0hSDwQgAAGPBBCyR4AUhwAEIOAXAYTsF0nqgQAEIOCRAEL2CJDiEIAABPwigJD9Ikk9EIAABDwSQMgeAVIcAhCAgF8EELJfJKkHAhCAgEcCCNkjQIpDAAIQ8IsAQvaLJPVAAAIQ8EgAIXsESHEIQAACfhFAyH6RpB4IQAACHgkgZI8AKQ4BCEDALwII2S+S1AMBCEDAIwGE7BEgxSEAAQj4RQAh+0WSeiAAAQh4JICQPQKkOAQgAAG/CCBkv0hSDwQgAAGPBBCyR4AUhwAEIOAXgf8H0MlWSp30jeAAAAAASUVORK5CYII=;" vertex="1" parent="1">
          <mxGeometry x="17" y="20" width="356" height="633" as="geometry" />
        </mxCell>
        <mxCell id="xRkAMs9unRZzOuT88SSD-45" value="" style="rounded=1;whiteSpace=wrap;html=1;strokeWidth=3;dashed=1;strokeColor=#C2C2C2;fillColor=none;" vertex="1" parent="1">
          <mxGeometry x="30" y="30" width="190" height="50" as="geometry" />
        </mxCell>
        <mxCell id="xRkAMs9unRZzOuT88SSD-47" value="&lt;font style=&quot;font-size: 17px;&quot;&gt;Mensaje de bienvenida, donde se mostrará el nombre de usuario&lt;br&gt;&lt;/font&gt;" style="rounded=1;whiteSpace=wrap;html=1;strokeWidth=3;" vertex="1" parent="1">
          <mxGeometry x="420" y="40" width="200" height="80" as="geometry" />
        </mxCell>
        <mxCell id="xRkAMs9unRZzOuT88SSD-51" value="" style="rounded=1;whiteSpace=wrap;html=1;strokeWidth=3;dashed=1;strokeColor=#C2C2C2;fillColor=none;" vertex="1" parent="1">
          <mxGeometry x="40" y="150" width="210" height="50" as="geometry" />
        </mxCell>
        <mxCell id="xRkAMs9unRZzOuT88SSD-55" value="&lt;font style=&quot;font-size: 17px;&quot;&gt;Este mensaje mostrará el capital total actual del usuario, que se obtiene de la base de datos, en vez de calcularse, para ser más rápido.&lt;br&gt;&lt;/font&gt;" style="rounded=1;whiteSpace=wrap;html=1;strokeWidth=3;" vertex="1" parent="1">
          <mxGeometry x="386" y="140" width="264" height="140" as="geometry" />
        </mxCell>
        <mxCell id="xRkAMs9unRZzOuT88SSD-56" value="&lt;font style=&quot;font-size: 17px;&quot;&gt;Estos botones mandarán al usuario a las pantallas de insertar un nuevo movimiento y de informes, respectivamente.&lt;br&gt;&lt;/font&gt;" style="rounded=1;whiteSpace=wrap;html=1;strokeWidth=3;" vertex="1" parent="1">
          <mxGeometry x="386" y="370" width="234" height="120" as="geometry" />
        </mxCell>
        <mxCell id="xRkAMs9unRZzOuT88SSD-57" value="" style="endArrow=none;html=1;rounded=0;exitX=1;exitY=0.5;exitDx=0;exitDy=0;strokeWidth=3;" edge="1" target="xRkAMs9unRZzOuT88SSD-56" parent="1" source="xRkAMs9unRZzOuT88SSD-58">
          <mxGeometry width="50" height="50" relative="1" as="geometry">
            <mxPoint x="316" y="515" as="sourcePoint" />
            <mxPoint x="400" y="515" as="targetPoint" />
          </mxGeometry>
        </mxCell>
        <mxCell id="xRkAMs9unRZzOuT88SSD-58" value="" style="rounded=1;whiteSpace=wrap;html=1;strokeWidth=3;dashed=1;strokeColor=#C2C2C2;fillColor=none;" vertex="1" parent="1">
          <mxGeometry x="70" y="220" width="250" height="220" as="geometry" />
        </mxCell>
        <mxCell id="xRkAMs9unRZzOuT88SSD-46" value="" style="endArrow=none;html=1;rounded=0;strokeWidth=3;exitX=1;exitY=0.5;exitDx=0;exitDy=0;" edge="1" target="xRkAMs9unRZzOuT88SSD-47" parent="1" source="xRkAMs9unRZzOuT88SSD-45">
          <mxGeometry width="50" height="50" relative="1" as="geometry">
            <mxPoint x="336" y="194.5" as="sourcePoint" />
            <mxPoint x="420" y="194.5" as="targetPoint" />
          </mxGeometry>
        </mxCell>
        <mxCell id="xRkAMs9unRZzOuT88SSD-54" value="" style="endArrow=none;html=1;rounded=0;strokeWidth=3;exitX=1.024;exitY=0.542;exitDx=0;exitDy=0;exitPerimeter=0;" edge="1" target="xRkAMs9unRZzOuT88SSD-55" parent="1" source="xRkAMs9unRZzOuT88SSD-51">
          <mxGeometry width="50" height="50" relative="1" as="geometry">
            <mxPoint x="830" y="200" as="sourcePoint" />
            <mxPoint x="380" y="355" as="targetPoint" />
          </mxGeometry>
        </mxCell>
      </root>
    </mxGraphModel>
  </diagram>
</mxfile>
